<?xml version="1.0" encoding="UTF-8" standalone="no"?><svg xmlns="http://www.w3.org/2000/svg" xmlns:xlink="http://www.w3.org/1999/xlink" contentScriptType="application/ecmascript" contentStyleType="text/css" height="110px" preserveAspectRatio="none" style="width:377px;height:110px;" version="1.1" viewBox="0 0 377 110" width="377px" zoomAndPan="magnify"><defs/><g><!--MD5=[f4443f4a6e309d2435886e8fa880f24d]
entity _CellUtilities--><rect fill="#F8F8F8" height="34.4844" rx="3" ry="3" style="stroke: #000000; stroke-width: 0.5;" width="83" x="6" y="65"/><text fill="#000000" font-family="Tahoma, sans-serif" font-size="12" lengthAdjust="spacingAndGlyphs" textLength="63" x="16" y="87.0059">CellUtilities</text><!--MD5=[518322c2ba7feec69ca4dbc62ac6ee58]
entity _demo--><rect fill="#F8F8F8" height="34.4844" rx="3" ry="3" style="stroke: #000000; stroke-width: 0.5;" width="53" x="101" y="65"/><text fill="#000000" font-family="Tahoma, sans-serif" font-size="12" lengthAdjust="spacingAndGlyphs" textLength="33" x="111" y="87.0059">demo</text><ellipse cx="97.7487" cy="25.242" fill="#F8F8F8" rx="27.7487" ry="13.242" style="stroke: #383838; stroke-width: 0.5;"/><text fill="#000000" font-family="Tahoma, sans-serif" font-size="12" font-weight="bold" lengthAdjust="spacingAndGlyphs" textLength="35" x="80.2487" y="28.9842">index</text><ellipse cx="203.6482" cy="82.242" fill="#F8F8F8" rx="37.6482" ry="13.242" style="stroke: #383838; stroke-width: 0.5;"/><text fill="#000000" font-family="Tahoma, sans-serif" font-size="12" lengthAdjust="spacingAndGlyphs" textLength="49" x="179.1482" y="85.9842">initscript</text><!--MD5=[594b23ac7a05478382f976e12621f3ec]
entity _kernelconnector--><rect fill="#F8F8F8" height="34.4844" rx="3" ry="3" style="stroke: #000000; stroke-width: 0.5;" width="113" x="253" y="65"/><text fill="#000000" font-family="Tahoma, sans-serif" font-size="12" lengthAdjust="spacingAndGlyphs" textLength="93" x="263" y="87.0059">kernelconnector</text><!--MD5=[a3eea01c79a6dc0556b84e2691ce61ee]
entity _widget--><rect fill="#F8F8F8" height="34.4844" rx="3" ry="3" style="stroke: #000000; stroke-width: 0.5;" width="57" x="137" y="8"/><text fill="#000000" font-family="Tahoma, sans-serif" font-size="12" lengthAdjust="spacingAndGlyphs" textLength="37" x="147" y="30.0059">widget</text><!--MD5=[bc957c3983f96650ae5858a7b021ee0a]
link <b>index</b> to _widget--><path d="M125.125,25 C127.313,25 129.502,25 131.69,25 " fill="none" id="&lt;b&gt;index&lt;/b&gt;-&gt;_widget" style="stroke: #000000; stroke-width: 1.0;"/><polygon fill="#000000" points="136.796,25,127.796,21,131.796,25,127.796,29,136.796,25" style="stroke: #000000; stroke-width: 1.0;"/><!--MD5=[dc073f12ce7559ec7d0bcee414cdd0a2]
link _widget to _CellUtilities--><path d="M136.937,39.4546 C135.097,40.317 133.273,41.1712 131.5,42 C116.974,48.7899 101.0181,56.2081 86.9506,62.7347 " fill="none" id="_widget-&gt;_CellUtilities" style="stroke: #000000; stroke-width: 0.5;"/><polygon fill="#000000" points="82.2571,64.9117,92.1047,64.7534,86.7929,62.8079,88.7385,57.4961,82.2571,64.9117" style="stroke: #000000; stroke-width: 0.5;"/><!--MD5=[17b3629611b7a074381c79d42ab219e9]
link _widget to _demo--><path d="M154.304,42.2043 C150.396,47.8604 145.955,54.2881 141.828,60.262 " fill="none" id="_widget-&gt;_demo" style="stroke: #000000; stroke-width: 0.5;"/><polygon fill="#000000" points="138.747,64.7214,147.1534,59.5899,141.5889,60.6075,140.5712,55.043,138.747,64.7214" style="stroke: #000000; stroke-width: 0.5;"/><!--MD5=[ee3345d4e46d223c53e06876610130ae]
link _widget to initscript--><path d="M176.696,42.2043 C181.627,49.3418 187.407,57.708 192.335,64.8403 " fill="none" id="_widget-&gt;initscript" style="stroke: #000000; stroke-width: 0.5;"/><polygon fill="#000000" points="195.278,69.0997,193.4538,59.4213,192.4361,64.9858,186.8716,63.9682,195.278,69.0997" style="stroke: #000000; stroke-width: 0.5;"/><!--MD5=[6913757f139e8f1d8c8b2262ff8866b2]
link _widget to _kernelconnector--><path d="M194.294,36.9979 C213.834,44.4609 240.11,54.497 262.634,63.0998 " fill="none" id="_widget-&gt;_kernelconnector" style="stroke: #000000; stroke-width: 0.5;"/><polygon fill="#000000" points="267.38,64.9123,260.3999,57.9641,262.7092,63.1281,257.5451,65.4374,267.38,64.9123" style="stroke: #000000; stroke-width: 0.5;"/><script type="text/plantuml"><![CDATA[MD5=[cb167f16b9872acfe6198bcac4eea36e]
@startuml

scale max 1920 width
top to bottom direction

skinparam nodesep 12
skinparam ranksep 23
skinparam monochrome true
skinparam shadowing false
skinparam defaultFontName Tahoma
skinparam defaultFontSize 12
skinparam roundCorner 6
skinparam dpi 150
skinparam arrowColor black
skinparam arrowThickness 0.5
skinparam packageTitleAlignment left

skinparam usecase {
  borderThickness 0.5
}

skinparam rectangle {
  borderThickness 0.5
}

skinparam component {
  borderThickness 1
}


rectangle "CellUtilities" as _CellUtilities
rectangle "demo" as _demo
(<b>index</b>)
(initscript)
rectangle "kernelconnector" as _kernelconnector
rectangle "widget" as _widget


(<b>index</b>) -[thickness=1]> _widget
_widget --> _CellUtilities
_widget --> _demo
_widget --> (initscript)
_widget --> _kernelconnector

@enduml


' View and edit on https://arkit.pro
]]></script></g></svg>