<?xml version="1.0" encoding="UTF-8" standalone="no"?><svg xmlns="http://www.w3.org/2000/svg" xmlns:xlink="http://www.w3.org/1999/xlink" contentScriptType="application/ecmascript" contentStyleType="text/css" height="236px" preserveAspectRatio="none" style="width:523px;height:236px;" version="1.1" viewBox="0 0 523 236" width="523px" zoomAndPan="magnify"><defs/><g><!--MD5=[a6f11bb19cee6b13000111f5ad685e8b]
cluster Dependencies--><path d="M84,141 L178,141 A4.5,4.5 0 0 1 181,144 L188,161.4844 L508,161.4844 A3,3 0 0 1 511,164.4844 L511,221 A3,3 0 0 1 508,224 L84,224 A3,3 0 0 1 81,221 L81,144 A3,3 0 0 1 84,141 " fill="#FFFFFF" style="stroke: #000000; stroke-width: 1.5;"/><line style="stroke: #000000; stroke-width: 1.5;" x1="81" x2="188" y1="161.4844" y2="161.4844"/><text fill="#000000" font-family="Tahoma, sans-serif" font-size="12" font-weight="bold" lengthAdjust="spacingAndGlyphs" textLength="94" x="85" y="155.0059">Dependencies</text><!--MD5=[b61a6006c0ea6b501f08186e3feb467e]
entity @jupyterlab--><rect fill="#F8F8F8" height="34.4844" rx="3" ry="3" style="stroke: #383838; stroke-width: 1.0;" width="88" x="181" y="174"/><rect fill="#F8F8F8" height="5" style="stroke: #383838; stroke-width: 1.0;" width="10" x="176" y="179"/><rect fill="#F8F8F8" height="5" style="stroke: #383838; stroke-width: 1.0;" width="10" x="176" y="198.4844"/><text fill="#000000" font-family="Tahoma, sans-serif" font-size="12" lengthAdjust="spacingAndGlyphs" textLength="68" x="191" y="196.0059">@jupyterlab</text><!--MD5=[518330c50ff10290722b3825ab222591]
entity @lumino--><rect fill="#F8F8F8" height="34.4844" rx="3" ry="3" style="stroke: #383838; stroke-width: 1.0;" width="71" x="97.5" y="174"/><rect fill="#F8F8F8" height="5" style="stroke: #383838; stroke-width: 1.0;" width="10" x="92.5" y="179"/><rect fill="#F8F8F8" height="5" style="stroke: #383838; stroke-width: 1.0;" width="10" x="92.5" y="198.4844"/><text fill="#000000" font-family="Tahoma, sans-serif" font-size="12" lengthAdjust="spacingAndGlyphs" textLength="51" x="107.5" y="196.0059">@lumino</text><!--MD5=[99173250191aa4a1cee38acff9d753e0]
entity @rjsf--><rect fill="#F8F8F8" height="34.4844" rx="3" ry="3" style="stroke: #383838; stroke-width: 1.0;" width="51" x="281.5" y="174"/><rect fill="#F8F8F8" height="5" style="stroke: #383838; stroke-width: 1.0;" width="10" x="276.5" y="179"/><rect fill="#F8F8F8" height="5" style="stroke: #383838; stroke-width: 1.0;" width="10" x="276.5" y="198.4844"/><text fill="#000000" font-family="Tahoma, sans-serif" font-size="12" lengthAdjust="spacingAndGlyphs" textLength="31" x="291.5" y="196.0059">@rjsf</text><!--MD5=[cb3d66c929489a99ecf6c8633ae21583]
entity react--><rect fill="#F8F8F8" height="34.4844" rx="3" ry="3" style="stroke: #383838; stroke-width: 1.0;" width="49" x="344.5" y="174"/><rect fill="#F8F8F8" height="5" style="stroke: #383838; stroke-width: 1.0;" width="10" x="339.5" y="179"/><rect fill="#F8F8F8" height="5" style="stroke: #383838; stroke-width: 1.0;" width="10" x="339.5" y="198.4844"/><text fill="#000000" font-family="Tahoma, sans-serif" font-size="12" lengthAdjust="spacingAndGlyphs" textLength="29" x="354.5" y="196.0059">react</text><!--MD5=[6ff9148407b7bcbac5944447f7841a5f]
entity react-select--><rect fill="#F8F8F8" height="34.4844" rx="3" ry="3" style="stroke: #383838; stroke-width: 1.0;" width="89" x="405.5" y="174"/><rect fill="#F8F8F8" height="5" style="stroke: #383838; stroke-width: 1.0;" width="10" x="400.5" y="179"/><rect fill="#F8F8F8" height="5" style="stroke: #383838; stroke-width: 1.0;" width="10" x="400.5" y="198.4844"/><text fill="#000000" font-family="Tahoma, sans-serif" font-size="12" lengthAdjust="spacingAndGlyphs" textLength="69" x="415.5" y="196.0059">react-select</text><!--MD5=[7a329e8a74ff5bc4087685728b100edc]
entity _src_widget--><rect fill="#F8F8F8" height="34.4844" rx="3" ry="3" style="stroke: #000000; stroke-width: 0.5;" width="80" x="267" y="8"/><text fill="#000000" font-family="Tahoma, sans-serif" font-size="12" lengthAdjust="spacingAndGlyphs" textLength="60" x="277" y="30.0059">src/widget</text><ellipse cx="59.9117" cy="83.242" fill="#F8F8F8" rx="53.9117" ry="13.242" style="stroke: #383838; stroke-width: 0.5;"/><text fill="#000000" font-family="Tahoma, sans-serif" font-size="12" lengthAdjust="spacingAndGlyphs" textLength="72" x="23.9117" y="86.9842">src/initscript</text><!--MD5=[3482c59a9ec1c1e73243b932e470f139]
entity _src_kernelconnector--><rect fill="#F8F8F8" height="34.4844" rx="3" ry="3" style="stroke: #000000; stroke-width: 0.5;" width="136" x="152" y="66"/><text fill="#000000" font-family="Tahoma, sans-serif" font-size="12" lengthAdjust="spacingAndGlyphs" textLength="116" x="162" y="88.0059">src/kernelconnector</text><!--MD5=[f4572e0bcff0e23ea3c7edcda753a7b6]
link _src_kernelconnector to @jupyterlab--><path d="M220.759,100.099 C221.622,118.388 223.034,148.3149 223.989,168.567 " fill="none" id="_src_kernelconnector-&gt;@jupyterlab" style="stroke: #000000; stroke-width: 0.5;"/><polygon fill="#000000" points="224.233,173.7494,227.8043,164.5708,223.9973,168.755,219.8131,164.948,224.233,173.7494" style="stroke: #000000; stroke-width: 0.5;"/><!--MD5=[25d46fc8095a1e307d4f70eedbb6e54c]
link _src_kernelconnector to @lumino--><path d="M204.13,100.384 C195.297,109.721 184.252,121.766 175,133 C165.342,144.7271 155.22,158.4166 147.333,169.4403 " fill="none" id="_src_kernelconnector-&gt;@lumino" style="stroke: #000000; stroke-width: 0.5;"/><polygon fill="#000000" points="144.317,173.6785,152.7941,168.6646,147.2159,169.6046,146.2758,164.0264,144.317,173.6785" style="stroke: #000000; stroke-width: 0.5;"/><!--MD5=[08d55b7fd2a623a0337f5403a80e40cf]
link _src_widget to @jupyterlab--><path d="M306.367,42.229 C305.261,57.666 302.238,81.251 294,100 C282.219,126.813 260.833,152.8523 244.981,169.9646 " fill="none" id="_src_widget-&gt;@jupyterlab" style="stroke: #000000; stroke-width: 0.5;"/><polygon fill="#000000" points="241.486,173.6906,250.5605,169.8627,244.9066,170.0437,244.7256,164.3898,241.486,173.6906" style="stroke: #000000; stroke-width: 0.5;"/><!--MD5=[f5f934e54f037d0755b9d59117e94137]
link _src_widget to @lumino--><path d="M266.728,30.72 C224.347,36.568 161.641,48.017 146,66 C121.362,94.326 124.141,141.1861 128.496,168.4654 " fill="none" id="_src_widget-&gt;@lumino" style="stroke: #000000; stroke-width: 0.5;"/><polygon fill="#000000" points="129.381,173.6488,131.8101,164.1042,128.54,168.72,123.9241,165.4499,129.381,173.6488" style="stroke: #000000; stroke-width: 0.5;"/><!--MD5=[7fd7ed77fab72c23560b772dd4de5ef6]
link _src_widget to @rjsf--><path d="M312.003,42.177 C313.984,49.392 316.02,58.043 317,66 C321.435,102.022 315.738,144.1843 311.3,168.9032 " fill="none" id="_src_widget-&gt;@rjsf" style="stroke: #000000; stroke-width: 0.5;"/><polygon fill="#000000" points="310.377,173.9047,315.945,165.7808,311.2851,168.9879,308.0781,164.3279,310.377,173.9047" style="stroke: #000000; stroke-width: 0.5;"/><!--MD5=[1ac0b4ab465a18b2da98d2fd02871a2d]
link _src_widget to react--><path d="M315.688,42.112 C319.406,49.315 323.653,57.974 327,66 C341.702,101.253 355.2,143.6555 362.74,168.6307 " fill="none" id="_src_widget-&gt;react" style="stroke: #000000; stroke-width: 0.5;"/><polygon fill="#000000" points="364.257,173.6868,365.5016,163.9169,362.82,168.8977,357.8392,166.2161,364.257,173.6868" style="stroke: #000000; stroke-width: 0.5;"/><!--MD5=[a56f42c9095b70be72e01a89dbce31f1]
link _src_widget to react-select--><path d="M321.79,42.279 C328.326,49.512 336.082,58.15 343,66 C374.99,102.299 411.725,145.126 432.766,169.7665 " fill="none" id="_src_widget-&gt;react-select" style="stroke: #000000; stroke-width: 0.5;"/><polygon fill="#000000" points="436.256,173.8556,433.4571,164.4128,433.0106,170.052,427.3714,169.6055,436.256,173.8556" style="stroke: #000000; stroke-width: 0.5;"/><!--MD5=[44ac78e1b3df92f6c414db5f92d5974b]
link _src_widget to src/initscript--><path d="M266.708,34.34 C229.37,42.167 172.32,54.38 123,66 C115.503,67.766 107.526,69.728 99.8575,71.655 " fill="none" id="_src_widget-&gt;src/initscript" style="stroke: #000000; stroke-width: 0.5;"/><polygon fill="#000000" points="94.6074,72.981,104.3128,74.6556,99.4552,71.7568,102.3541,66.8991,94.6074,72.981" style="stroke: #000000; stroke-width: 0.5;"/><!--MD5=[78abe939e78c1d07093d477c7587e220]
link _src_widget to _src_kernelconnector--><path d="M281.836,42.198 C271.736,48.698 260.023,56.238 249.524,62.996 " fill="none" id="_src_widget-&gt;_src_kernelconnector" style="stroke: #000000; stroke-width: 0.5;"/><polygon fill="#000000" points="245.107,65.839,254.8399,64.332,249.3115,63.1331,250.5105,57.6048,245.107,65.839" style="stroke: #000000; stroke-width: 0.5;"/><script type="text/plantuml"><![CDATA[MD5=[8d9334f5ea9c65990dbba9e2556e25fe]
@startuml

scale max 1920 width
top to bottom direction

skinparam nodesep 12
skinparam ranksep 24
skinparam monochrome true
skinparam shadowing false
skinparam defaultFontName Tahoma
skinparam defaultFontSize 12
skinparam roundCorner 6
skinparam dpi 150
skinparam arrowColor black
skinparam arrowThickness 0.5
skinparam packageTitleAlignment left

skinparam usecase {
  borderThickness 0.5
}

skinparam rectangle {
  borderThickness 0.5
}

skinparam component {
  borderThickness 1
}


rectangle "src/widget" as _src_widget
(src/initscript)
rectangle "src/kernelconnector" as _src_kernelconnector

package "Dependencies" {
  [@jupyterlab]
  [@lumino]
  [@rjsf]
  [react]
  [react-select]
}

_src_kernelconnector ---> [@jupyterlab]
_src_kernelconnector ---> [@lumino]
_src_widget ---> [@jupyterlab]
_src_widget ---> [@lumino]
_src_widget ---> [@rjsf]
_src_widget ---> [react]
_src_widget ---> [react-select]
_src_widget --> (src/initscript)
_src_widget --> _src_kernelconnector

@enduml


' View and edit on https://arkit.pro
]]></script></g></svg>